HIERARCHY
ROOT mixamorig:Hips
{
	OFFSET -0.000008 104.274872 1.554316
	CHANNELS 6 Xposition Yposition Zposition Xrotation Yrotation Zrotation
	JOINT mixamorig:Spine
	{
		OFFSET -0.000005 10.181595 0.131519
		CHANNELS 6 Xposition Yposition Zposition Xrotation Yrotation Zrotation
		JOINT mixamorig:Spine1
		{
			OFFSET -0.000000 9.893959 -1.470707
			CHANNELS 6 Xposition Yposition Zposition Xrotation Yrotation Zrotation
			JOINT mixamorig:Spine2
			{
				OFFSET -0.000000 9.220757 -1.370641
				CHANNELS 6 Xposition Yposition Zposition Xrotation Yrotation Zrotation
				JOINT mixamorig:Neck
				{
					OFFSET 0.000001 16.740417 -2.049036
					CHANNELS 6 Xposition Yposition Zposition Xrotation Yrotation Zrotation
					JOINT mixamorig:Head
					{
						OFFSET 0.000000 9.617874 1.685006
						CHANNELS 6 Xposition Yposition Zposition Xrotation Yrotation Zrotation
						JOINT mixamorig:HeadTop_End
						{
							OFFSET 0.000002 22.037354 7.501101
							CHANNELS 6 Xposition Yposition Zposition Xrotation Yrotation Zrotation
							End Site
							{
								OFFSET 0.000168 2310.654297 -282.823242
							}
						}
					}
				}
				JOINT mixamorig:RightShoulder
				{
					OFFSET -4.569970 11.014908 -2.160885
					CHANNELS 6 Xposition Yposition Zposition Xrotation Yrotation Zrotation
					JOINT mixamorig:RightArm
					{
						OFFSET -10.592851 -0.524811 -2.232101
						CHANNELS 6 Xposition Yposition Zposition Xrotation Yrotation Zrotation
						JOINT mixamorig:RightForeArm
						{
							OFFSET -27.841511 0.000031 -0.000004
							CHANNELS 6 Xposition Yposition Zposition Xrotation Yrotation Zrotation
							JOINT mixamorig:RightHand
							{
								OFFSET -28.328831 -0.000015 0.000015
								CHANNELS 6 Xposition Yposition Zposition Xrotation Yrotation Zrotation
								JOINT mixamorig:RightHandThumb1
								{
									OFFSET -2.464806 -1.573990 2.681852
									CHANNELS 6 Xposition Yposition Zposition Xrotation Yrotation Zrotation
									JOINT mixamorig:RightHandThumb2
									{
										OFFSET -3.215179 -1.872803 1.924282
										CHANNELS 6 Xposition Yposition Zposition Xrotation Yrotation Zrotation
										JOINT mixamorig:RightHandThumb3
										{
											OFFSET -2.654831 -1.527969 1.512609
											CHANNELS 6 Xposition Yposition Zposition Xrotation Yrotation Zrotation
											JOINT mixamorig:RightHandThumb4
											{
												OFFSET -2.018814 -1.152008 1.108052
												CHANNELS 6 Xposition Yposition Zposition Xrotation Yrotation Zrotation
												End Site
												{
													OFFSET -188.809540 -114.533607 132.431396
												}
											}
										}
									}
								}
								JOINT mixamorig:RightHandIndex1
								{
									OFFSET -9.108284 -0.517868 2.259835
									CHANNELS 6 Xposition Yposition Zposition Xrotation Yrotation Zrotation
									JOINT mixamorig:RightHandIndex2
									{
										OFFSET -3.699989 0.000000 0.001215
										CHANNELS 6 Xposition Yposition Zposition Xrotation Yrotation Zrotation
										JOINT mixamorig:RightHandIndex3
										{
											OFFSET -2.850006 0.000031 -0.000522
											CHANNELS 6 Xposition Yposition Zposition Xrotation Yrotation Zrotation
											JOINT mixamorig:RightHandIndex4
											{
												OFFSET -2.772186 -0.000015 -0.000020
												CHANNELS 6 Xposition Yposition Zposition Xrotation Yrotation Zrotation
												End Site
												{
													OFFSET -277.218445 0.000000 -0.050231
												}
											}
										}
									}
								}
								JOINT mixamorig:RightHandMiddle1
								{
									OFFSET -9.532516 -0.000031 -0.000023
									CHANNELS 6 Xposition Yposition Zposition Xrotation Yrotation Zrotation
									JOINT mixamorig:RightHandMiddle2
									{
										OFFSET -3.700005 -0.000015 0.003713
										CHANNELS 6 Xposition Yposition Zposition Xrotation Yrotation Zrotation
										JOINT mixamorig:RightHandMiddle3
										{
											OFFSET -2.949974 0.000015 -0.002054
											CHANNELS 6 Xposition Yposition Zposition Xrotation Yrotation Zrotation
											JOINT mixamorig:RightHandMiddle4
											{
												OFFSET -2.946640 0.000000 -0.000156
												CHANNELS 6 Xposition Yposition Zposition Xrotation Yrotation Zrotation
												End Site
												{
													OFFSET -294.664337 0.000000 -0.113670
												}
											}
										}
									}
								}
								JOINT mixamorig:RightHandRing1
								{
									OFFSET -9.103600 -0.043076 -1.865134
									CHANNELS 6 Xposition Yposition Zposition Xrotation Yrotation Zrotation
									JOINT mixamorig:RightHandRing2
									{
										OFFSET -3.379288 0.000000 -0.001055
										CHANNELS 6 Xposition Yposition Zposition Xrotation Yrotation Zrotation
										JOINT mixamorig:RightHandRing3
										{
											OFFSET -2.889687 -0.000015 0.000379
											CHANNELS 6 Xposition Yposition Zposition Xrotation Yrotation Zrotation
											JOINT mixamorig:RightHandRing4
											{
												OFFSET -2.638809 -0.000015 0.000941
												CHANNELS 6 Xposition Yposition Zposition Xrotation Yrotation Zrotation
												End Site
												{
													OFFSET -263.880371 0.000000 0.516020
												}
											}
										}
									}
								}
								JOINT mixamorig:RightHandPinky1
								{
									OFFSET -8.076683 -0.486710 -3.806280
									CHANNELS 6 Xposition Yposition Zposition Xrotation Yrotation Zrotation
									JOINT mixamorig:RightHandPinky2
									{
										OFFSET -3.600014 -0.000015 -0.003747
										CHANNELS 6 Xposition Yposition Zposition Xrotation Yrotation Zrotation
										JOINT mixamorig:RightHandPinky3
										{
											OFFSET -2.099983 0.000000 -0.005739
											CHANNELS 6 Xposition Yposition Zposition Xrotation Yrotation Zrotation
											JOINT mixamorig:RightHandPinky4
											{
												OFFSET -2.115768 -0.000031 -0.003680
												CHANNELS 6 Xposition Yposition Zposition Xrotation Yrotation Zrotation
												End Site
												{
													OFFSET -211.577087 0.000000 -0.350686
												}
											}
										}
									}
								}
							}
						}
					}
				}
				JOINT mixamorig:LeftShoulder
				{
					OFFSET 4.570447 11.014725 -2.160855
					CHANNELS 6 Xposition Yposition Zposition Xrotation Yrotation Zrotation
					JOINT mixamorig:LeftArm
					{
						OFFSET 10.592371 -0.524597 -2.232119
						CHANNELS 6 Xposition Yposition Zposition Xrotation Yrotation Zrotation
						JOINT mixamorig:LeftForeArm
						{
							OFFSET 27.841532 -0.000031 0.000026
							CHANNELS 6 Xposition Yposition Zposition Xrotation Yrotation Zrotation
							JOINT mixamorig:LeftHand
							{
								OFFSET 28.328846 -0.000061 0.000022
								CHANNELS 6 Xposition Yposition Zposition Xrotation Yrotation Zrotation
								JOINT mixamorig:LeftHandThumb1
								{
									OFFSET 2.466141 -1.576172 2.681732
									CHANNELS 6 Xposition Yposition Zposition Xrotation Yrotation Zrotation
									JOINT mixamorig:LeftHandThumb2
									{
										OFFSET 3.217812 -1.872070 1.916482
										CHANNELS 6 Xposition Yposition Zposition Xrotation Yrotation Zrotation
										JOINT mixamorig:LeftHandThumb3
										{
											OFFSET 2.656029 -1.528778 1.514513
											CHANNELS 6 Xposition Yposition Zposition Xrotation Yrotation Zrotation
											JOINT mixamorig:LeftHandThumb4
											{
												OFFSET 2.020889 -1.154053 1.115139
												CHANNELS 6 Xposition Yposition Zposition Xrotation Yrotation Zrotation
												End Site
												{
													OFFSET 190.885437 -115.081749 130.048782
												}
											}
										}
									}
								}
								JOINT mixamorig:LeftHandIndex1
								{
									OFFSET 9.109314 -0.518021 2.259871
									CHANNELS 6 Xposition Yposition Zposition Xrotation Yrotation Zrotation
									JOINT mixamorig:LeftHandIndex2
									{
										OFFSET 3.699989 0.000000 -0.000322
										CHANNELS 6 Xposition Yposition Zposition Xrotation Yrotation Zrotation
										JOINT mixamorig:LeftHandIndex3
										{
											OFFSET 2.850006 0.000000 0.000352
											CHANNELS 6 Xposition Yposition Zposition Xrotation Yrotation Zrotation
											JOINT mixamorig:LeftHandIndex4
											{
												OFFSET 2.774864 -0.000031 -0.000027
												CHANNELS 6 Xposition Yposition Zposition Xrotation Yrotation Zrotation
												End Site
												{
													OFFSET 277.486267 0.000000 -0.009857
												}
											}
										}
									}
								}
								JOINT mixamorig:LeftHandMiddle1
								{
									OFFSET 9.533394 0.000061 0.000044
									CHANNELS 6 Xposition Yposition Zposition Xrotation Yrotation Zrotation
									JOINT mixamorig:LeftHandMiddle2
									{
										OFFSET 3.699989 -0.000015 -0.000231
										CHANNELS 6 Xposition Yposition Zposition Xrotation Yrotation Zrotation
										JOINT mixamorig:LeftHandMiddle3
										{
											OFFSET 2.949997 -0.000015 -0.000059
											CHANNELS 6 Xposition Yposition Zposition Xrotation Yrotation Zrotation
											JOINT mixamorig:LeftHandMiddle4
											{
												OFFSET 2.952896 0.000031 0.000063
												CHANNELS 6 Xposition Yposition Zposition Xrotation Yrotation Zrotation
												End Site
												{
													OFFSET 295.289337 0.000000 0.022810
												}
											}
										}
									}
								}
								JOINT mixamorig:LeftHandRing1
								{
									OFFSET 9.104523 -0.042999 -1.865074
									CHANNELS 6 Xposition Yposition Zposition Xrotation Yrotation Zrotation
									JOINT mixamorig:LeftHandRing2
									{
										OFFSET 3.150009 -0.000031 0.000043
										CHANNELS 6 Xposition Yposition Zposition Xrotation Yrotation Zrotation
										JOINT mixamorig:LeftHandRing3
										{
											OFFSET 2.949982 -0.000015 0.000040
											CHANNELS 6 Xposition Yposition Zposition Xrotation Yrotation Zrotation
											JOINT mixamorig:LeftHandRing4
											{
												OFFSET 2.644348 0.000000 0.000057
												CHANNELS 6 Xposition Yposition Zposition Xrotation Yrotation Zrotation
												End Site
												{
													OFFSET 264.434631 0.000000 0.012105
												}
											}
										}
									}
								}
								JOINT mixamorig:LeftHandPinky1
								{
									OFFSET 8.077789 -0.486847 -3.806259
									CHANNELS 6 Xposition Yposition Zposition Xrotation Yrotation Zrotation
									JOINT mixamorig:LeftHandPinky2
									{
										OFFSET 3.599953 0.000031 0.014727
										CHANNELS 6 Xposition Yposition Zposition Xrotation Yrotation Zrotation
										JOINT mixamorig:LeftHandPinky3
										{
											OFFSET 2.100021 0.000015 0.007705
											CHANNELS 6 Xposition Yposition Zposition Xrotation Yrotation Zrotation
											JOINT mixamorig:LeftHandPinky4
											{
												OFFSET 2.125504 0.000031 0.007517
												CHANNELS 6 Xposition Yposition Zposition Xrotation Yrotation Zrotation
												End Site
												{
													OFFSET 212.550781 0.000000 0.625752
												}
											}
										}
									}
								}
							}
						}
					}
				}
			}
		}
	}
	JOINT mixamorig:RightUpLeg
	{
		OFFSET -8.207787 -6.751648 -1.599560
		CHANNELS 6 Xposition Yposition Zposition Xrotation Yrotation Zrotation
		JOINT mixamorig:RightLeg
		{
			OFFSET -0.000002 -44.370117 0.345942
			CHANNELS 6 Xposition Yposition Zposition Xrotation Yrotation Zrotation
			JOINT mixamorig:RightFoot
			{
				OFFSET 0.000003 -44.423679 -3.043532
				CHANNELS 6 Xposition Yposition Zposition Xrotation Yrotation Zrotation
				JOINT mixamorig:RightToeBase
				{
					OFFSET -0.000002 -8.728671 10.710558
					CHANNELS 6 Xposition Yposition Zposition Xrotation Yrotation Zrotation
					JOINT mixamorig:RightToe_End
					{
						OFFSET -0.000001 -0.000679 9.278119
						CHANNELS 6 Xposition Yposition Zposition Xrotation Yrotation Zrotation
						End Site
						{
							OFFSET 0.000000 -0.067690 927.812134
						}
					}
				}
			}
		}
	}
	JOINT mixamorig:LeftUpLeg
	{
		OFFSET 8.207793 -6.751686 -1.599556
		CHANNELS 6 Xposition Yposition Zposition Xrotation Yrotation Zrotation
		JOINT mixamorig:LeftLeg
		{
			OFFSET -0.000004 -44.370014 0.346954
			CHANNELS 6 Xposition Yposition Zposition Xrotation Yrotation Zrotation
			JOINT mixamorig:LeftFoot
			{
				OFFSET -0.000001 -44.423672 -3.044401
				CHANNELS 6 Xposition Yposition Zposition Xrotation Yrotation Zrotation
				JOINT mixamorig:LeftToeBase
				{
					OFFSET -0.000002 -8.728669 10.710558
					CHANNELS 6 Xposition Yposition Zposition Xrotation Yrotation Zrotation
					JOINT mixamorig:LeftToe_End
					{
						OFFSET -0.000003 -0.000679 9.278133
						CHANNELS 6 Xposition Yposition Zposition Xrotation Yrotation Zrotation
						End Site
						{
							OFFSET 0.000000 -0.068021 927.813477
						}
					}
				}
			}
		}
	}
}
MOTION
Frames: 3
Frame Time: 0.033333
0.000006 104.270477 1.554256 0.000010 0.000003 -0.000113 -0.000005 10.181587 0.131522 0.000001 -0.000003 0.000084 -0.000000 9.893967 -1.470711 0.000001 0.000000 -0.000000 -0.000000 9.220802 -1.370642 0.000000 -0.000000 -0.000000 0.000001 16.740433 -2.049030 0.000000 -0.000000 -0.000000 0.000000 9.617859 1.685014 0.000000 0.000000 0.000000 0.000002 22.037384 7.501101 0.000000 -0.000000 0.000000 -4.569968 11.014880 -2.160881 0.000008 0.000001 -0.000038 -10.592875 -0.524755 -2.231921 75.356145 27.117820 -21.100616 -27.841509 0.000011 0.000550 -50.999506 111.677677 70.203997 -28.328829 -0.000007 0.000026 -0.000318 -0.000042 0.000007 -2.464442 -1.573877 2.682373 -37.585278 -158.247423 13.507520 -3.215278 -1.872590 1.924656 154.383736 31.738226 4.811204 -2.654953 -1.527904 1.513070 148.894968 26.902184 -33.905196 -2.018842 -1.152001 1.108079 -0.000003 -0.000003 0.000002 -9.108403 -0.517571 2.260147 100.586570 17.511678 -21.071301 -3.700053 0.000309 0.001529 96.299978 15.973466 -17.778735 -2.850095 0.000364 -0.000241 96.249994 13.005023 -14.490853 -2.772181 -0.000015 -0.000021 0.000001 -0.000001 0.000001 -9.532615 0.000263 0.000257 96.996746 17.865345 -20.309836 -3.700102 0.000312 0.003997 96.439423 15.245395 -16.928359 -2.950089 0.000311 -0.001785 97.424090 13.098313 -14.888431 -2.946598 0.000001 -0.000155 -0.000001 0.000000 0.000002 -9.103723 -0.042764 -1.864856 93.968889 18.683663 -19.950317 -3.379356 0.000307 -0.000788 94.137956 11.518288 -12.394276 -2.889754 0.000362 0.000647 97.839236 7.524784 -8.680516 -2.638826 -0.000028 0.000941 0.000001 -0.000000 -0.000002 -8.076768 -0.486404 -3.806033 87.926446 19.039108 -18.225989 -3.600054 0.000282 -0.003502 90.872525 9.103337 -8.879027 -2.100008 0.000320 -0.005492 90.908582 4.794387 -4.650803 -2.115762 -0.000043 -0.003673 -0.000000 0.000000 0.000001 4.570446 11.014691 -2.160851 -0.000018 0.000010 -0.000021 10.592381 -0.524490 -2.232335 73.838286 -4.739005 3.561599 27.841822 0.000063 -0.000196 93.499320 -70.903989 74.244361 28.328831 -0.000044 0.000026 0.000018 -0.000089 0.000000 2.466256 -1.575914 2.681802 -157.414714 -4.800861 46.556700 3.217866 -1.871815 1.916406 169.603173 -20.958195 38.984070 2.656104 -1.528703 1.514498 137.922884 -27.934647 63.139122 2.020891 -1.154082 1.115143 -0.000001 -0.000001 0.000002 9.109368 -0.517917 2.259758 72.392034 -23.241684 17.106590 3.700042 0.000100 -0.000426 70.210240 -22.985624 16.281206 2.850060 0.000121 0.000221 66.741528 -17.552300 11.611188 2.774882 -0.000030 -0.000030 0.000003 0.000003 0.000002 9.533449 0.000167 -0.000076 71.352753 -21.378975 15.428680 3.700067 0.000135 -0.000350 75.866012 -20.206949 15.811224 2.950051 0.000104 -0.000181 75.032101 -20.400505 15.733452 2.952865 -0.000013 0.000059 -0.000001 0.000000 0.000003 9.104587 -0.042892 -1.865212 70.237171 -20.535847 14.522659 3.150061 0.000152 -0.000080 76.061185 -17.660006 13.856716 2.950026 0.000132 -0.000083 77.164472 -15.840687 12.668176 2.644302 0.000020 0.000049 -0.000001 0.000005 -0.000000 8.077839 -0.486766 -3.806417 67.965744 -21.042276 14.698176 3.600021 0.000124 0.014575 67.683398 -17.282844 12.002505 2.100041 0.000125 0.007557 70.121249 -15.011631 10.922170 2.125488 -0.000015 0.007507 0.000001 -0.000003 0.000000 -8.207786 -6.751667 -1.599560 -0.077001 -0.000003 0.000080 -0.000002 -44.370110 0.345938 0.153719 -0.000000 -0.000000 0.000000 -44.423679 -3.043532 -0.076700 0.000000 -0.000002 -0.000006 -8.728667 10.710559 -0.000009 -0.000000 -0.000000 -0.000001 -0.000679 9.278123 0.000000 -0.000000 -0.000000 8.207792 -6.751710 -1.599556 -0.074518 -0.000003 0.000081 -0.000002 -44.370014 0.346960 0.148822 0.000002 0.000000 -0.000001 -44.423664 -3.044403 -0.074314 0.000000 -0.000002 -0.000004 -8.728671 10.710558 0.000007 -0.000000 -0.000000 0.000000 -0.000680 9.278137 -0.000000 0.000000 -0.000001 
0.000006 104.270477 1.554256 0.000010 0.000003 -0.000113 -0.000005 10.181587 0.131522 0.000001 -0.000003 0.000084 -0.000000 9.893967 -1.470711 0.000001 0.000000 -0.000000 -0.000000 9.220802 -1.370642 0.000000 -0.000000 -0.000000 0.000001 16.740433 -2.049030 0.000000 -0.000000 -0.000000 0.000000 9.617859 1.685014 0.000000 0.000000 0.000000 0.000002 22.037384 7.501101 0.000000 -0.000000 0.000000 -4.569968 11.014880 -2.160881 0.000008 0.000001 -0.000038 -10.592870 -0.524791 -2.231884 75.807587 34.784248 -27.411112 -27.841532 -0.000008 0.000549 -48.730285 107.607055 63.504278 -28.328817 0.000009 0.000030 -0.000321 -0.000045 0.000006 -2.464418 -1.573742 2.682307 -50.646887 -166.217148 -17.323591 -3.215258 -1.872541 1.924656 150.390233 32.510789 14.742606 -2.654951 -1.527880 1.513068 147.810280 27.600875 -28.788974 -2.018819 -1.152001 1.108069 -0.000005 -0.000001 0.000002 -9.108384 -0.517561 2.260129 99.375086 16.585711 -19.550826 -3.700066 0.000287 0.001520 97.067028 15.283732 -17.239759 -2.850075 0.000355 -0.000256 96.655776 12.721352 -14.275743 -2.772156 -0.000002 -0.000019 0.000001 0.000001 0.000000 -9.532587 0.000267 0.000281 94.764640 17.318027 -18.951857 -3.700087 0.000311 0.003998 96.083632 14.475992 -15.972896 -2.950061 0.000330 -0.001788 98.842441 13.489744 -15.715826 -2.946626 0.000001 -0.000152 0.000001 0.000000 0.000000 -9.103708 -0.042789 -1.864887 91.082492 19.527996 -19.846680 -3.379343 0.000310 -0.000800 93.326209 10.464227 -11.104810 -2.889772 0.000353 0.000650 100.471762 7.312699 -8.837882 -2.638802 -0.000017 0.000940 -0.000001 -0.000000 0.000000 -8.076760 -0.486403 -3.806013 86.285459 20.839109 -19.409874 -3.600039 0.000273 -0.003510 88.886183 9.380599 -8.848326 -2.100019 0.000319 -0.005489 92.198797 4.803151 -4.765713 -2.115789 -0.000045 -0.003678 -0.000000 0.000001 -0.000001 4.570446 11.014691 -2.160851 -0.000018 0.000010 -0.000021 10.592398 -0.524474 -2.232358 73.937788 -11.664531 8.793182 27.841820 0.000072 -0.000195 95.424252 -73.701559 78.978324 28.328815 -0.000029 0.000023 0.000023 -0.000089 0.000000 2.466225 -1.575851 2.681782 -162.299939 -18.309712 30.191328 3.217872 -1.871906 1.916471 164.523712 -14.818148 63.399619 2.656101 -1.528694 1.514518 138.210490 -27.699537 66.884006 2.020895 -1.154066 1.115148 0.000005 -0.000001 0.000004 9.109368 -0.517900 2.259746 75.302487 -22.937148 17.782128 3.700051 0.000131 -0.000463 74.539145 -15.659749 11.961091 2.850052 0.000153 0.000200 73.938936 -11.683812 8.806861 2.774869 -0.000032 -0.000023 0.000001 0.000000 0.000001 9.533459 0.000180 -0.000085 73.959228 -20.389172 15.416155 3.700043 0.000138 -0.000367 78.448554 -12.547241 10.253582 2.950060 0.000139 -0.000212 78.189444 -10.831647 8.812247 2.952858 -0.000016 0.000059 -0.000001 -0.000001 0.000000 9.104588 -0.042874 -1.865230 73.440352 -19.360600 14.504153 3.150050 0.000166 -0.000096 78.360288 -13.382829 10.925222 2.950021 0.000143 -0.000081 77.334933 -9.729004 7.793441 2.644324 0.000017 0.000058 0.000001 0.000001 0.000000 8.077842 -0.486746 -3.806399 68.798747 -20.599681 14.616214 3.600004 0.000134 0.014580 69.491909 -16.930183 12.163193 2.100021 0.000158 0.007553 71.571824 -11.574701 8.707479 2.125504 -0.000016 0.007515 -0.000002 0.000001 -0.000000 -8.207786 -6.751667 -1.599560 -0.077001 -0.000003 0.000080 -0.000002 -44.370110 0.345938 0.153719 -0.000000 -0.000000 0.000000 -44.423679 -3.043532 -0.076700 0.000000 -0.000002 -0.000006 -8.728667 10.710559 -0.000009 -0.000000 -0.000000 -0.000001 -0.000679 9.278123 0.000000 -0.000000 -0.000000 8.207792 -6.751710 -1.599556 -0.074518 -0.000003 0.000081 -0.000002 -44.370014 0.346960 0.148822 0.000002 0.000000 -0.000001 -44.423664 -3.044403 -0.074314 0.000000 -0.000002 -0.000004 -8.728671 10.710558 0.000007 -0.000000 -0.000000 0.000000 -0.000680 9.278137 -0.000000 0.000000 -0.000001 
0.000006 104.270477 1.554256 0.000010 0.000003 -0.000113 -0.000005 10.181587 0.131522 0.000001 -0.000003 0.000084 -0.000000 9.893967 -1.470711 0.000001 0.000000 -0.000000 -0.000000 9.220802 -1.370642 0.000000 -0.000000 -0.000000 0.000001 16.740433 -2.049030 0.000000 -0.000000 -0.000000 0.000000 9.617859 1.685014 0.000000 0.000000 0.000000 0.000002 22.037384 7.501101 0.000000 -0.000000 0.000000 -4.569968 11.014880 -2.160881 0.000008 0.000001 -0.000038 -10.592863 -0.524795 -2.231854 75.676283 39.590437 -31.239103 -27.841518 0.000009 0.000578 -47.710476 105.152190 60.045450 -28.328825 0.000021 0.000027 -0.000317 -0.000047 0.000009 -2.464451 -1.573668 2.682293 -54.889538 -175.281451 -32.623654 -3.215280 -1.872556 1.924625 149.723880 31.470851 7.676729 -2.654952 -1.527861 1.513061 145.814457 27.971967 -27.443444 -2.018822 -1.152019 1.108072 -0.000001 -0.000003 0.000000 -9.108360 -0.517559 2.260138 99.933584 15.329274 -18.257038 -3.700080 0.000332 0.001521 97.082916 13.958660 -15.751784 -2.850094 0.000360 -0.000263 96.775147 11.603027 -13.050150 -2.772155 -0.000015 -0.000014 -0.000001 0.000001 -0.000001 -9.532593 0.000268 0.000247 95.111060 16.229865 -17.878717 -3.700076 0.000305 0.003990 95.810028 14.278468 -15.679717 -2.950063 0.000327 -0.001782 97.962678 12.943376 -14.851340 -2.946630 0.000014 -0.000155 -0.000001 -0.000001 -0.000001 -9.103695 -0.042764 -1.864869 90.866521 18.674973 -18.908520 -3.379350 0.000300 -0.000808 93.192870 11.780749 -12.469874 -2.889741 0.000353 0.000664 100.089551 8.159072 -9.787313 -2.638813 -0.000019 0.000941 0.000000 0.000001 -0.000002 -8.076743 -0.486385 -3.806020 85.133459 19.677497 -17.958813 -3.600035 0.000285 -0.003513 87.757911 10.314906 -9.571218 -2.100013 0.000324 -0.005489 91.684211 5.798545 -5.744879 -2.115784 -0.000054 -0.003679 0.000000 0.000002 -0.000006 4.570446 11.014691 -2.160851 -0.000018 0.000010 -0.000021 10.592422 -0.524462 -2.232376 73.495950 -20.721853 15.547495 27.841808 0.000039 -0.000215 95.681115 -76.345758 81.932026 28.328842 -0.000029 0.000023 0.000023 -0.000087 -0.000001 2.466265 -1.575922 2.681788 -161.225686 -10.176540 41.667323 3.217881 -1.871922 1.916458 160.627430 -16.852761 63.026745 2.656101 -1.528711 1.514500 139.217273 -27.473874 60.975756 2.020903 -1.154070 1.115150 0.000003 0.000004 0.000004 9.109404 -0.517892 2.259755 80.299508 -23.226663 19.659199 3.700046 0.000131 -0.000440 79.900058 -17.477525 14.688257 2.850065 0.000165 0.000206 79.082136 -13.578821 11.225495 2.774880 -0.000046 -0.000024 -0.000000 0.000003 -0.000000 9.533482 0.000172 -0.000073 78.143491 -21.858402 17.811632 3.700041 0.000144 -0.000369 81.479246 -15.194145 13.104700 2.950056 0.000164 -0.000202 81.639427 -12.014097 10.389692 2.952880 -0.000030 0.000061 0.000001 0.000001 0.000000 9.104603 -0.042875 -1.865198 78.374508 -20.835842 17.050049 3.150063 0.000173 -0.000082 82.152204 -15.366705 13.414873 2.950016 0.000164 -0.000108 81.392550 -10.259859 8.831337 2.644310 0.000016 0.000057 0.000001 0.000001 -0.000000 8.077851 -0.486738 -3.806397 74.649774 -22.209327 17.503608 3.600011 0.000159 0.014566 74.473145 -18.332924 14.398220 2.100033 0.000160 0.007544 75.103551 -11.798102 9.456184 2.125504 -0.000014 0.007513 -0.000000 -0.000003 0.000000 -8.207786 -6.751667 -1.599560 -0.077001 -0.000003 0.000080 -0.000002 -44.370110 0.345938 0.153719 -0.000000 -0.000000 0.000000 -44.423679 -3.043532 -0.076700 0.000000 -0.000002 -0.000006 -8.728667 10.710559 -0.000009 -0.000000 -0.000000 -0.000001 -0.000679 9.278123 0.000000 -0.000000 -0.000000 8.207792 -6.751710 -1.599556 -0.074518 -0.000003 0.000081 -0.000002 -44.370014 0.346960 0.148822 0.000002 0.000000 -0.000001 -44.423664 -3.044403 -0.074314 0.000000 -0.000002 -0.000004 -8.728671 10.710558 0.000007 -0.000000 -0.000000 0.000000 -0.000680 9.278137 -0.000000 0.000000 -0.000001 
